<svg xmlns="http://www.w3.org/2000/svg" width="60" height="91" viewBox="0 0 60 91">
    <defs>
        <linearGradient id="a" x1="32.248%" x2="67.752%" y1="0%" y2="100%">
            <stop offset="0%" stop-color="#FEB661"/>
            <stop offset="100%" stop-color="#E54B49"/>
        </linearGradient>
        <linearGradient id="b" x1="31.35%" x2="68.65%" y1="0%" y2="100%">
            <stop offset="0%" stop-color="#FEB661"/>
            <stop offset="100%" stop-color="#E54B49"/>
        </linearGradient>
    </defs>
    <g fill="none" fill-rule="evenodd">
        <path fill="url(#a)" d="M47.51 4.394l-1.395 2.492a8.993 8.993 0 0 0-7.586-4.154H11.732a9 9 0 0 0-9 9V70.216a8.989 8.989 0 0 0 3.802 7.347L5.282 79.8A10.994 10.994 0 0 1 0 70.4V11C0 4.925 4.925 0 11 0h27.714c3.596 0 6.79 1.726 8.797 4.394z"/>
        <path fill="url(#b)" d="M21.286 9.429H49c6.075 0 11 4.924 11 11v59.4c0 6.075-4.925 11-11 11H21.286c-6.075 0-11-4.925-11-11v-59.4c0-6.076 4.925-11 11-11zm-.62 2.731a7.648 7.648 0 0 0-7.649 7.648h44.798a7.648 7.648 0 0 0-7.649-7.648h-29.5zm1.351 76.484h26.798a9 9 0 0 0 9-9v-.288H13.017v.288a9 9 0 0 0 9 9zm-9-66.104v54.085h44.798V22.54H13.017zM28.86 48.763a9.287 9.287 0 1 1 0-18.575 9.287 9.287 0 0 1 0 18.575zm0-2.185a7.102 7.102 0 1 0 0-14.204 7.102 7.102 0 0 0 0 14.204zm4.644 35.51h3.824a1.366 1.366 0 0 1 0 2.731h-3.824a1.366 1.366 0 0 1 0-2.731zM20.666 54.772H45.25a1.093 1.093 0 0 1 0 2.186H20.666a1.093 1.093 0 1 1 0-2.186zm0 6.01h30.047a1.093 1.093 0 0 1 0 2.185H20.666a1.093 1.093 0 0 1 0-2.185zm30.047 6.01a1.093 1.093 0 0 1 0 2.184H20.666a1.093 1.093 0 1 1 0-2.185h30.047z"/>
    </g>
</svg>
