<svg xmlns="http://www.w3.org/2000/svg" width="104" height="74" viewBox="0 0 104 74">
    <defs>
        <linearGradient id="a" x1="0%" y1="24.887%" y2="75.113%">
            <stop offset="0%" stop-color="#FEB661"/>
            <stop offset="100%" stop-color="#E54B49"/>
        </linearGradient>
    </defs>
    <path fill="url(#a)" fill-rule="evenodd" d="M78 45h82c6.075 0 11 4.925 11 11v51.706c0 6.075-4.925 11-11 11H78c-6.075 0-11-4.925-11-11V56c0-6.075 4.925-11 11-11zm-.117 71.727h82.524a8.41 8.41 0 0 0 8.41-8.41H69.473a8.41 8.41 0 0 0 8.41 8.41zm.59-69.168a9 9 0 0 0-9 9v49.285h99.344V56.56a9 9 0 0 0-9-9H78.473zm45.184 34.695a1.552 1.552 0 1 0 0-3.105 1.552 1.552 0 0 0 0 3.105zm6.209 0a1.552 1.552 0 1 0 0-3.105 1.552 1.552 0 0 0 0 3.105zm6.209 0a1.552 1.552 0 1 1 0-3.105 1.552 1.552 0 0 1 0 3.105zm-18.943 28.716h3.463a1.237 1.237 0 0 1 0 2.473h-3.463a1.237 1.237 0 0 1 0-2.473zm-34.14-41.219l3.623 3.623 4.303 4.303a.99.99 0 0 1-1.4 1.4l-4.302-4.304-4.303-4.303a1.01 1.01 0 0 1-.02-.02.99.99 0 0 1 0-1.398l4.304-4.303 4.302-4.303a.99.99 0 0 1 1.4 1.399l-4.303 4.303-3.604 3.603zm35.388 0l-3.603-3.603-4.303-4.303a.99.99 0 1 1 1.4-1.4l4.302 4.304 4.303 4.303a.99.99 0 0 1-.02 1.418l-4.302 4.303-4.303 4.303a.99.99 0 1 1-1.4-1.4l4.304-4.302 3.622-3.623zm-9.956-11.263L94.82 82.05a.99.99 0 0 1-1.713-.99L106.71 57.5a.99.99 0 0 1 1.714.989z" transform="translate(-67 -45)"/>
</svg>
