<svg xmlns="http://www.w3.org/2000/svg" width="58" height="95" viewBox="0 0 58 95">
    <defs>
        <linearGradient id="a" x1="31.35%" x2="68.65%" y1="0%" y2="100%">
            <stop offset="0%" stop-color="#FEB661"/>
            <stop offset="100%" stop-color="#E54B49"/>
        </linearGradient>
    </defs>
    <path fill="url(#a)" fill-rule="evenodd" d="M102 36h36c6.075 0 11 4.925 11 11v72.967c0 6.075-4.925 11-11 11h-36c-6.075 0-11-4.925-11-11V47c0-6.075 4.925-11 11-11zm1.11 3.187a8.923 8.923 0 0 0-8.923 8.923h52.264a8.923 8.923 0 0 0-8.924-8.923H103.11zm.077 89.23h34.264a9 9 0 0 0 9-9v-1.835H94.187v1.836a9 9 0 0 0 9 9zm-9-77.12v63.099h52.264v-63.1H94.187zM112.67 81.89c-5.984 0-10.835-4.851-10.835-10.835 0-5.984 4.851-10.835 10.835-10.835 5.984 0 10.835 4.85 10.835 10.835 0 5.984-4.85 10.835-10.835 10.835zm0-2.55a8.286 8.286 0 1 0 0-16.57 8.286 8.286 0 0 0 0 16.57zm5.418 41.43h4.461a1.593 1.593 0 1 1 0 3.186h-4.461a1.593 1.593 0 1 1 0-3.187zM103.11 88.9h28.681a1.275 1.275 0 0 1 0 2.55H103.11a1.275 1.275 0 0 1 0-2.55zm0 7.011h35.055a1.275 1.275 0 0 1 0 2.55H103.11a1.275 1.275 0 0 1 0-2.55zm35.055 7.011a1.275 1.275 0 0 1 0 2.55H103.11a1.275 1.275 0 1 1 0-2.55h35.055z" transform="translate(-91 -36)"/>
</svg>
