<svg xmlns="http://www.w3.org/2000/svg" width="118" height="86" viewBox="0 0 118 86">
    <defs>
        <linearGradient id="a" x1="0%" y1="24.887%" y2="75.113%">
            <stop offset="0%" stop-color="#FEB661"/>
            <stop offset="100%" stop-color="#E54B49"/>
        </linearGradient>
        <linearGradient id="b" x1="0%" y1="0%" y2="100%">
            <stop offset="0%" stop-color="#FEB661"/>
            <stop offset="100%" stop-color="#E54B49"/>
        </linearGradient>
    </defs>
    <g fill="none" fill-rule="evenodd">
        <path fill="url(#a)" d="M11 0h82c6.075 0 11 4.925 11 11v51.706c0 6.075-4.925 11-11 11H11c-6.075 0-11-4.925-11-11V11C0 4.925 4.925 0 11 0zm-.117 71.727h82.524a8.41 8.41 0 0 0 8.41-8.41H2.473a8.41 8.41 0 0 0 8.41 8.41zm.59-69.168a9 9 0 0 0-9 9v49.285h99.344V11.56a9 9 0 0 0-9-9H11.473zm45.184 34.695a1.552 1.552 0 1 0 0-3.105 1.552 1.552 0 0 0 0 3.105zm6.209 0a1.552 1.552 0 1 0 0-3.105 1.552 1.552 0 0 0 0 3.105zm6.209 0a1.552 1.552 0 1 1 0-3.105 1.552 1.552 0 0 1 0 3.105zM50.132 65.97h3.463a1.237 1.237 0 1 1 0 2.473h-3.463a1.237 1.237 0 1 1 0-2.473zm-34.14-41.219l3.623 3.623 4.303 4.303a.99.99 0 0 1-1.4 1.4l-4.302-4.304-4.303-4.303a1.01 1.01 0 0 1-.02-.02.99.99 0 0 1 0-1.398l4.304-4.303 4.302-4.303a.99.99 0 0 1 1.4 1.399l-4.303 4.303-3.604 3.603zm35.388 0l-3.603-3.603-4.303-4.303a.99.99 0 1 1 1.4-1.4l4.302 4.304 4.303 4.303a.99.99 0 0 1-.02 1.418l-4.302 4.303-4.303 4.303a.99.99 0 1 1-1.4-1.4l4.304-4.302 3.622-3.623zm-9.956-11.263L27.82 37.05a.99.99 0 0 1-1.713-.99L39.71 12.5a.99.99 0 1 1 1.714.989z"/>
        <circle cx="94" cy="61" r="10" fill="#FFF"/>
        <path fill="#FFF" d="M117.837 57.113c-.083-.73-.935-1.28-1.672-1.28-2.382 0-4.497-1.399-5.384-3.563-.905-2.216-.32-4.8 1.454-6.429.56-.51.628-1.367.16-1.96a25.724 25.724 0 0 0-4.12-4.16 1.448 1.448 0 0 0-1.976.16c-1.55 1.716-4.334 2.353-6.485 1.456a5.775 5.775 0 0 1-3.512-5.645 1.443 1.443 0 0 0-1.276-1.519 25.941 25.941 0 0 0-5.85-.015 1.447 1.447 0 0 0-1.286 1.488c.084 2.41-1.345 4.64-3.561 5.547-2.126.868-4.89.236-6.437-1.466a1.45 1.45 0 0 0-1.962-.164 25.84 25.84 0 0 0-4.206 4.158 1.446 1.446 0 0 0 .155 1.976 5.761 5.761 0 0 1 1.454 6.487c-.897 2.138-3.116 3.514-5.657 3.514-.825-.026-1.411.528-1.502 1.278a26.037 26.037 0 0 0-.011 5.912c.082.734.96 1.279 1.705 1.279 2.264-.058 4.437 1.343 5.35 3.562.909 2.217.324 4.8-1.454 6.43a1.443 1.443 0 0 0-.158 1.958 25.806 25.806 0 0 0 4.113 4.162c.596.48 1.462.413 1.979-.157 1.556-1.72 4.34-2.357 6.482-1.458a5.767 5.767 0 0 1 3.518 5.643 1.443 1.443 0 0 0 1.275 1.52 25.76 25.76 0 0 0 5.85.015 1.447 1.447 0 0 0 1.287-1.489c-.087-2.41 1.344-4.638 3.558-5.544 2.14-.874 4.892-.234 6.439 1.464.514.56 1.363.627 1.962.165a25.905 25.905 0 0 0 4.206-4.159 1.445 1.445 0 0 0-.155-1.976 5.76 5.76 0 0 1-1.457-6.486c.884-2.108 3.02-3.525 5.32-3.525l.32.009c.747.06 1.433-.514 1.522-1.275.23-1.955.233-3.944.012-5.913zM92.5 69c-4.688 0-8.5-3.813-8.5-8.5 0-4.687 3.812-8.5 8.5-8.5 4.688 0 8.5 3.813 8.5 8.5 0 4.687-3.812 8.5-8.5 8.5z"/>
        <path fill="url(#b)" d="M109.887 58.002c-.057-.507-.647-.887-1.157-.887-1.65 0-3.113-.968-3.728-2.467a4.01 4.01 0 0 1 1.007-4.45 1 1 0 0 0 .11-1.358 17.809 17.809 0 0 0-2.852-2.88 1.003 1.003 0 0 0-1.368.11c-1.073 1.19-3 1.63-4.49 1.01a3.998 3.998 0 0 1-2.43-3.908.999.999 0 0 0-.884-1.052 17.96 17.96 0 0 0-4.05-.01 1.002 1.002 0 0 0-.89 1.03 4.006 4.006 0 0 1-2.466 3.84c-1.471.601-3.385.163-4.456-1.015a1.003 1.003 0 0 0-1.358-.114 17.89 17.89 0 0 0-2.912 2.88 1.001 1.001 0 0 0 .107 1.367 3.989 3.989 0 0 1 1.007 4.491c-.622 1.48-2.158 2.433-3.917 2.433a.98.98 0 0 0-1.04.884A18.025 18.025 0 0 0 74.113 62c.057.508.664.886 1.18.886 1.568-.04 3.072.93 3.704 2.466a4.004 4.004 0 0 1-1.007 4.451.999.999 0 0 0-.109 1.356 17.865 17.865 0 0 0 2.847 2.881 1 1 0 0 0 1.37-.108c1.078-1.191 3.005-1.632 4.488-1.01a3.992 3.992 0 0 1 2.436 3.907 1 1 0 0 0 .882 1.052 17.834 17.834 0 0 0 4.05.01c.522-.057.909-.507.891-1.03a4.001 4.001 0 0 1 2.463-3.839c1.482-.605 3.387-.162 4.458 1.014.356.387.944.435 1.359.114a17.934 17.934 0 0 0 2.912-2.879 1 1 0 0 0-.108-1.368 3.987 3.987 0 0 1-1.008-4.49c.611-1.46 2.09-2.44 3.682-2.44l.222.006c.517.041.992-.356 1.054-.883.159-1.354.161-2.73.008-4.093zM92.346 66.23a5.89 5.89 0 0 1-5.884-5.885 5.89 5.89 0 0 1 5.884-5.884 5.89 5.89 0 0 1 5.885 5.884 5.89 5.89 0 0 1-5.885 5.885z"/>
    </g>
</svg>
