<svg xmlns="http://www.w3.org/2000/svg" width="100" height="75" viewBox="0 0 100 75">
    <defs>
        <linearGradient id="a" x1="0%" y1="26.49%" y2="73.51%">
            <stop offset="0%" stop-color="#FEB661"/>
            <stop offset="100%" stop-color="#E54B49"/>
        </linearGradient>
        <linearGradient id="b" x1="0%" y1="23.323%" y2="76.677%">
            <stop offset="0%" stop-color="#FEB661"/>
            <stop offset="100%" stop-color="#E54B49"/>
        </linearGradient>
    </defs>
    <g fill="none" fill-rule="evenodd">
        <path fill="url(#a)" d="M88.712 3.122l-1.844 1.23a8.964 8.964 0 0 0-5.765-2.088H11.19a9 9 0 0 0-9 9V54.58c0 1.936.611 3.73 1.651 5.198l-1.618 1.08A10.952 10.952 0 0 1 0 54.227V11C0 4.925 4.925 0 11 0h70.035c2.987 0 5.695 1.19 7.677 3.122z"/>
        <path fill="url(#b)" d="M18.965 7.08H89c6.075 0 11 4.925 11 11v45.226c0 6.075-4.925 11-11 11H18.965c-6.076 0-11-4.925-11-11V18.08c0-6.075 4.924-11 11-11zm-.37 64.475h71.03a8.442 8.442 0 0 0 8.443-8.442H10.153a8.442 8.442 0 0 0 8.442 8.442zm.558-62.211a9 9 0 0 0-9 9v42.58h87.915v-42.58a9 9 0 0 0-9-9H19.153zm38.95 30.704a1.374 1.374 0 1 0 0-2.748 1.374 1.374 0 0 0 0 2.748zm5.495 0a1.374 1.374 0 1 0 0-2.748 1.374 1.374 0 0 0 0 2.748zm5.495 0a1.374 1.374 0 1 1 0-2.748 1.374 1.374 0 0 1 0 2.748zM52.329 65.46h3.065a1.094 1.094 0 1 1 0 2.19h-3.065a1.094 1.094 0 0 1 0-2.19zM22.117 28.983l3.206 3.206 3.808 3.808a.876.876 0 0 1-1.238 1.238l-3.808-3.807-3.808-3.808a.893.893 0 0 1-.017-.017.876.876 0 0 1 0-1.239l3.808-3.808 3.808-3.807a.876.876 0 0 1 1.238 1.238l-3.808 3.808-3.189 3.188zm31.317 0l-3.189-3.188-3.808-3.808a.876.876 0 0 1 1.238-1.238l3.808 3.807 3.808 3.808a.876.876 0 0 1-.017 1.256 136709630.842 136709630.842 0 0 1-7.616 7.615.876.876 0 0 1-1.238-1.238l3.808-3.808 3.206-3.206zm-8.811-9.967L32.584 39.867a.876.876 0 1 1-1.516-.876l12.038-20.85a.876.876 0 0 1 1.517.875z"/>
    </g>
</svg>
