<svg xmlns="http://www.w3.org/2000/svg" width="118" height="86" viewBox="0 0 118 86">
    <defs>
        <linearGradient id="a" x1="0%" y1="24.887%" y2="75.113%">
            <stop offset="0%" stop-color="#FEB661"/>
            <stop offset="100%" stop-color="#E54B49"/>
        </linearGradient>
        <linearGradient id="b" x1="0%" y1="0%" y2="100%">
            <stop offset="0%" stop-color="#FEB661"/>
            <stop offset="100%" stop-color="#E54B49"/>
        </linearGradient>
    </defs>
    <g fill="none" fill-rule="evenodd">
        <path fill="url(#a)" d="M11 0h82c6.075 0 11 4.925 11 11v51.706c0 6.075-4.925 11-11 11H11c-6.075 0-11-4.925-11-11V11C0 4.925 4.925 0 11 0zm-.117 71.727h82.524a8.41 8.41 0 0 0 8.41-8.41H2.473a8.41 8.41 0 0 0 8.41 8.41zm.59-69.168a9 9 0 0 0-9 9v49.285h99.344V11.56a9 9 0 0 0-9-9H11.473zm45.184 34.695a1.552 1.552 0 1 0 0-3.105 1.552 1.552 0 0 0 0 3.105zm6.209 0a1.552 1.552 0 1 0 0-3.105 1.552 1.552 0 0 0 0 3.105zm6.209 0a1.552 1.552 0 1 1 0-3.105 1.552 1.552 0 0 1 0 3.105zM50.132 65.97h3.463a1.237 1.237 0 1 1 0 2.473h-3.463a1.237 1.237 0 1 1 0-2.473zm-34.14-41.219l3.623 3.623 4.303 4.303a.99.99 0 0 1-1.4 1.4l-4.302-4.304-4.303-4.303a1.01 1.01 0 0 1-.02-.02.99.99 0 0 1 0-1.398l4.304-4.303 4.302-4.303a.99.99 0 0 1 1.4 1.399l-4.303 4.303-3.604 3.603zm35.388 0l-3.603-3.603-4.303-4.303a.99.99 0 1 1 1.4-1.4l4.302 4.304 4.303 4.303a.99.99 0 0 1-.02 1.418l-4.302 4.303-4.303 4.303a.99.99 0 1 1-1.4-1.4l4.304-4.302 3.622-3.623zm-9.956-11.263L27.82 37.05a.99.99 0 0 1-1.713-.99L39.71 12.5a.99.99 0 1 1 1.714.989z"/>
        <circle cx="94" cy="61" r="10" fill="#FFF"/>
        <path fill="#FFF" d="M117.837 57.113c-.083-.73-.935-1.28-1.672-1.28-2.382 0-4.497-1.399-5.384-3.563-.905-2.216-.32-4.8 1.454-6.429.56-.51.628-1.367.16-1.96a25.724 25.724 0 0 0-4.12-4.16 1.448 1.448 0 0 0-1.976.16c-1.55 1.716-4.334 2.353-6.485 1.456a5.775 5.775 0 0 1-3.512-5.645 1.443 1.443 0 0 0-1.276-1.519 25.941 25.941 0 0 0-5.85-.015 1.447 1.447 0 0 0-1.286 1.488c.084 2.41-1.345 4.64-3.561 5.547-2.126.868-4.89.236-6.437-1.466a1.45 1.45 0 0 0-1.962-.164 25.84 25.84 0 0 0-4.206 4.158 1.446 1.446 0 0 0 .155 1.976 5.761 5.761 0 0 1 1.454 6.487c-.897 2.138-3.116 3.514-5.657 3.514-.825-.026-1.411.528-1.502 1.278a26.037 26.037 0 0 0-.011 5.912c.082.734.96 1.279 1.705 1.279 2.264-.058 4.437 1.343 5.35 3.562.909 2.217.324 4.8-1.454 6.43a1.443 1.443 0 0 0-.158 1.958 25.806 25.806 0 0 0 4.113 4.162c.596.48 1.462.413 1.979-.157 1.556-1.72 4.34-2.357 6.482-1.458a5.767 5.767 0 0 1 3.518 5.643 1.443 1.443 0 0 0 1.275 1.52 25.76 25.76 0 0 0 5.85.015 1.447 1.447 0 0 0 1.287-1.489c-.087-2.41 1.344-4.638 3.558-5.544 2.14-.874 4.892-.234 6.439 1.464.514.56 1.363.627 1.962.165a25.905 25.905 0 0 0 4.206-4.159 1.445 1.445 0 0 0-.155-1.976 5.76 5.76 0 0 1-1.457-6.486c.884-2.108 3.02-3.525 5.32-3.525l.32.009c.747.06 1.433-.514 1.522-1.275.23-1.955.233-3.944.012-5.913zM92.5 69c-4.688 0-8.5-3.813-8.5-8.5 0-4.687 3.812-8.5 8.5-8.5 4.688 0 8.5 3.813 8.5 8.5 0 4.687-3.812 8.5-8.5 8.5z"/>
        <path fill="url(#b)" d="M107 50.767c0-.56-.218-1.085-.614-1.48l-3.678-3.674a2.097 2.097 0 0 0-2.962 0L80.084 65.287a5.625 5.625 0 0 0-1.357 2.198l-.017.053L77 75l7.416-1.694.054-.012.052-.018a5.628 5.628 0 0 0 2.201-1.355l19.664-19.674a2.08 2.08 0 0 0 .613-1.48zM80.816 68.836l2.354 2.351-3.052.697.698-3.048zm4.497 1.18l-3.325-3.321 15.975-15.982 3.325 3.321-15.975 15.982zm17.631-17.64l-3.324-3.32 1.608-1.61 3.325 3.322-1.609 1.609zm-22.657.123h-3.28V45h6.811l6.616 6.616-1.656 1.657-5.93-5.93H79.35v2.812h3.28v3.28h3.28v2.706l-2.342 2.345v-2.707h-3.281V52.5zM107 66.91c0 4.458-3.627 8.085-8.084 8.085-3.227 0-6.018-1.901-7.313-4.642l1.809-1.81a5.751 5.751 0 0 0 5.504 4.108 5.747 5.747 0 0 0 5.74-5.74c0-2.6-1.736-4.801-4.11-5.506l1.81-1.81C105.098 60.89 107 63.682 107 66.91zm-8.026 1.465a1.464 1.464 0 1 1 2.93 0 1.464 1.464 0 0 1-2.93 0z"/>
    </g>
</svg>
